<svg width="77" height="77" viewBox="0 0 77 77" fill="none" xmlns="http://www.w3.org/2000/svg">
<g clip-path="url(#clip0_1838_11671)">
<path d="M54.4398 61.3668C63.2481 52.5585 63.2481 38.2774 54.4398 29.4691C45.6315 20.6608 31.3504 20.6608 22.5421 29.4691C13.7338 38.2774 13.7338 52.5585 22.5421 61.3668C31.3504 70.1752 45.6315 70.1752 54.4398 61.3668Z" fill="#D4F0E3"/>
<path d="M45.6581 14.6543L42.3231 8.87797C43.2155 7.93443 43.7635 6.66183 43.7635 5.26365C43.7635 2.36127 41.4023 0 38.4999 0C35.5975 0 33.2362 2.36127 33.2362 5.26365C33.2362 6.66183 33.7842 7.93428 34.6767 8.87782L31.3416 14.6543C17.3639 17.9057 6.91797 30.465 6.91797 45.4181C6.91797 62.8324 21.0856 77 38.4999 77C55.9141 77 70.0818 62.8324 70.0818 45.4181C70.0818 30.465 59.6358 17.9057 45.6581 14.6543ZM38.5 3.0078C39.7439 3.0078 40.7559 4.01977 40.7559 5.26365C40.7559 6.50753 39.7439 7.5195 38.5 7.5195C37.2562 7.5195 36.2442 6.50753 36.2442 5.26365C36.244 4.01977 37.256 3.0078 38.5 3.0078ZM37.2799 10.3846C37.6717 10.4778 38.0801 10.5275 38.5 10.5275C38.9198 10.5275 39.3282 10.478 39.72 10.3847L41.8124 14.0087C40.7235 13.8947 39.6185 13.8362 38.5 13.8362C37.3816 13.8362 36.2765 13.8947 35.1877 14.0087L37.2799 10.3846ZM38.4999 73.9922C22.744 73.9922 9.92577 61.1739 9.92577 45.4181C9.92577 29.6622 22.7441 16.844 38.4999 16.844C54.2556 16.844 67.074 29.6623 67.074 45.4181C67.074 61.1739 54.2556 73.9922 38.4999 73.9922Z" fill="#29B475"/>
<path d="M38.5 31.1309C39.3306 31.1309 40.0039 30.4576 40.0039 29.627V28.123C40.0039 27.2924 39.3306 26.6191 38.5 26.6191C37.6694 26.6191 36.9961 27.2924 36.9961 28.123V29.627C36.9961 30.4574 37.6694 31.1309 38.5 31.1309Z" fill="#29B475"/>
<path d="M31.1547 29.6878C30.7393 28.9684 29.8195 28.722 29.1004 29.1373C28.381 29.5526 28.1346 30.4724 28.5499 31.1917L29.3019 32.4941C29.5804 32.9765 30.0859 33.2463 30.6056 33.2463C30.8607 33.2463 31.1194 33.1812 31.3562 33.0445C32.0755 32.6293 32.322 31.7095 31.9066 30.9901L31.1547 29.6878Z" fill="#29B475"/>
<path d="M22.7698 38.0726L24.0722 38.8246C24.309 38.9614 24.5676 39.0264 24.8228 39.0264C25.3425 39.0264 25.848 38.7566 26.1265 38.2741C26.5419 37.5548 26.2954 36.635 25.5761 36.2198L24.2737 35.4678C23.5544 35.0526 22.6347 35.2989 22.2194 36.0183C21.804 36.7376 22.0505 37.6572 22.7698 38.0726Z" fill="#29B475"/>
<path d="M24.2119 45.418C24.2119 44.5874 23.5386 43.9141 22.708 43.9141H21.2041C20.3735 43.9141 19.7002 44.5874 19.7002 45.418C19.7002 46.2486 20.3735 46.9219 21.2041 46.9219H22.708C23.5386 46.9219 24.2119 46.2486 24.2119 45.418Z" fill="#29B475"/>
<path d="M24.0722 52.0113L22.7698 52.7631C22.0505 53.1784 21.804 54.0981 22.2193 54.8175C22.4978 55.2999 23.0034 55.5697 23.5231 55.5697C23.7782 55.5697 24.0369 55.5047 24.2736 55.368L25.576 54.6162C26.2953 54.201 26.5418 53.2812 26.1266 52.5619C25.7113 51.8426 24.7912 51.5959 24.0722 52.0113Z" fill="#29B475"/>
<path d="M31.3557 57.7915C30.6364 57.3763 29.7166 57.6228 29.3014 58.342L28.5494 59.6443C28.1341 60.3637 28.3806 61.2834 29.0999 61.6987C29.3367 61.8355 29.5953 61.9005 29.8505 61.9005C30.3702 61.9005 30.8757 61.6307 31.1542 61.1482L31.9062 59.8459C32.3215 59.1265 32.0751 58.2069 31.3557 57.7915Z" fill="#29B475"/>
<path d="M38.5 59.7051C37.6694 59.7051 36.9961 60.3784 36.9961 61.209V62.7129C36.9961 63.5435 37.6694 64.2168 38.5 64.2168C39.3306 64.2168 40.0039 63.5435 40.0039 62.7129V61.209C40.0039 60.3784 39.3306 59.7051 38.5 59.7051Z" fill="#29B475"/>
<path d="M47.6982 58.3416C47.2828 57.6223 46.3631 57.3757 45.6438 57.7912C44.9245 58.2064 44.678 59.1262 45.0934 59.8455L45.8453 61.1479C46.1239 61.6304 46.6293 61.9002 47.1491 61.9002C47.4041 61.9002 47.6628 61.8351 47.8997 61.6984C48.619 61.2831 48.8655 60.3633 48.4501 59.644L47.6982 58.3416Z" fill="#29B475"/>
<path d="M54.2298 52.763L52.9274 52.0112C52.2081 51.596 51.2884 51.8426 50.8731 52.5618C50.4578 53.2811 50.7043 54.2009 51.4237 54.6161L52.726 55.368C52.9629 55.5047 53.2213 55.5696 53.4765 55.5696C53.9962 55.5696 54.5019 55.2998 54.7804 54.8174C55.1956 54.0981 54.9491 53.1784 54.2298 52.763Z" fill="#29B475"/>
<path d="M55.7954 43.9141H54.2915C53.4609 43.9141 52.7876 44.5874 52.7876 45.418C52.7876 46.2486 53.4609 46.9219 54.2915 46.9219H55.7954C56.626 46.9219 57.2993 46.2486 57.2993 45.418C57.2993 44.5874 56.626 43.9141 55.7954 43.9141Z" fill="#29B475"/>
<path d="M52.1769 39.0269C52.432 39.0269 52.6906 38.9618 52.9275 38.8251L54.2299 38.0731C54.9492 37.6579 55.1957 36.7381 54.7803 36.0188C54.3649 35.2995 53.4453 35.053 52.726 35.4684L51.4236 36.2203C50.7043 36.6356 50.4578 37.5554 50.8732 38.2747C51.1517 38.7571 51.6572 39.0269 52.1769 39.0269Z" fill="#29B475"/>
<path d="M47.8992 29.1378C47.1799 28.7224 46.2602 28.9689 45.8449 29.6883L45.0929 30.9906C44.6775 31.71 44.924 32.6297 45.6433 33.045C45.8802 33.1818 46.1387 33.2468 46.3939 33.2468C46.9137 33.2468 47.4191 32.977 47.6977 32.4945L48.4496 31.1922C48.865 30.4728 48.6185 29.5531 47.8992 29.1378Z" fill="#29B475"/>
<path d="M38.5 46.9223H46.02C46.8506 46.9223 47.5239 46.249 47.5239 45.4184C47.5239 44.5878 46.8506 43.9145 46.02 43.9145H40.0039V35.6426C40.0039 34.812 39.3306 34.1387 38.5 34.1387C37.6694 34.1387 36.9961 34.812 36.9961 35.6426V45.4184C36.9961 46.249 37.6694 46.9223 38.5 46.9223Z" fill="#29B475"/>
</g>
<defs>
<clipPath id="clip0_1838_11671">
<rect width="77" height="77" fill="white"/>
</clipPath>
</defs>
</svg>
