<svg width="77" height="77" viewBox="0 0 77 77" fill="none" xmlns="http://www.w3.org/2000/svg">
<path d="M73.5533 49.3286C73.5533 45.3121 70.2525 42.0443 66.1951 42.0443C62.6585 42.0443 59.6968 44.5273 58.9949 47.8247H45.7C45.1004 45.0078 42.8513 42.7853 40.0037 42.1974V24.6133C40.0037 23.7828 39.3302 23.1094 38.4998 23.1094C37.6693 23.1094 36.9959 23.7828 36.9959 24.6133V42.1974C34.1481 42.7853 31.8991 45.0078 31.2995 47.8247H18.0047C17.3028 44.5273 14.341 42.0443 10.8045 42.0443C6.74706 42.0443 3.44629 45.3121 3.44629 49.3286C3.44629 52.8351 5.96202 55.7709 9.30055 56.46V70.2277L8.98066 69.713C8.54213 69.0077 7.61512 68.791 6.90948 69.2297C6.20415 69.6682 5.98774 70.5955 6.42613 71.3008L9.52718 76.2898C9.80165 76.7313 10.2846 76.9997 10.8045 76.9997C11.3244 76.9997 11.8073 76.7313 12.0817 76.2898L15.1828 71.3008C15.6212 70.5955 15.4049 69.6682 14.6994 69.2297C13.9936 68.7911 13.0668 69.0077 12.6282 69.713L12.3084 70.2277V56.46C15.1562 55.8721 17.4051 53.6497 18.0047 50.8325H31.2994C31.899 53.6497 34.1481 55.8721 36.9957 56.46V70.2277L36.6758 69.713C36.2373 69.0077 35.3103 68.791 34.6047 69.2297C33.8993 69.6682 33.6829 70.5955 34.1213 71.3008L37.2224 76.2898C37.4968 76.7313 37.9797 76.9997 38.4996 76.9997C39.0195 76.9997 39.5024 76.7313 39.7769 76.2898L42.878 71.3008C43.3164 70.5955 43.1001 69.6682 42.3946 69.2297C41.6888 68.7911 40.7618 69.0077 40.3234 69.713L40.0037 70.2277V56.46C42.8515 55.8721 45.1004 53.6497 45.7 50.8325H58.9947C59.5943 53.6497 61.8434 55.8721 64.6911 56.46V70.2277L64.3712 69.713C63.9327 69.0077 63.0056 68.791 62.3 69.2297C61.5947 69.6682 61.3783 70.5955 61.8167 71.3008L64.9177 76.2898C65.1922 76.7313 65.6751 76.9997 66.195 76.9997C66.7149 76.9997 67.1978 76.7313 67.4723 76.2898L70.5733 71.3008C71.0117 70.5955 70.7954 69.6682 70.0899 69.2297C69.3842 68.7911 68.4573 69.0077 68.0188 69.713L67.6989 70.2277V56.46C71.0376 55.7709 73.5533 52.8351 73.5533 49.3286ZM10.8045 53.6051C8.40572 53.6051 6.4541 51.6866 6.4541 49.3285C6.4541 46.9704 8.40572 45.052 10.8045 45.052C13.2032 45.052 15.1548 46.9704 15.1548 49.3285C15.1548 51.6866 13.2032 53.6051 10.8045 53.6051ZM38.4998 53.6051C36.1011 53.6051 34.1494 51.6866 34.1494 49.3285C34.1494 46.9704 36.1011 45.0521 38.4998 45.0521C40.8985 45.0521 42.8501 46.9705 42.8501 49.3286C42.8501 51.6868 40.8985 53.6051 38.4998 53.6051ZM61.8448 49.3286C61.8448 46.9705 63.7964 45.0521 66.1951 45.0521C68.5939 45.0521 70.5455 46.9705 70.5455 49.3286C70.5455 51.6868 68.5939 53.6053 66.1951 53.6053C63.7964 53.6053 61.8448 51.6868 61.8448 49.3286Z" fill="#29B475"/>
<path d="M38.4995 30.0847C46.9133 30.0847 53.734 23.35 53.734 15.0424C53.734 6.7347 46.9133 0 38.4995 0C30.0858 0 23.2651 6.7347 23.2651 15.0424C23.2651 23.35 30.0858 30.0847 38.4995 30.0847Z" fill="#D4F0E3"/>
<path d="M38.3841 20.9514C37.5536 20.9514 36.8802 20.2779 36.8802 19.4475V11.7187H36.4067C35.5763 11.7187 34.9028 11.0453 34.9028 10.2148C34.9028 9.38439 35.5763 8.71094 36.4067 8.71094H38.3841C39.2145 8.71094 39.888 9.38439 39.888 10.2148V19.4476C39.888 20.2781 39.2147 20.9514 38.3841 20.9514Z" fill="#29B475"/>
</svg>
