<svg width="77" height="77" viewBox="0 0 77 77" fill="none" xmlns="http://www.w3.org/2000/svg">
<g clip-path="url(#clip0_1838_11695)">
<path d="M68.8789 28.744V18.746C66.6293 18.746 64.8056 16.9224 64.8056 14.6727C64.8056 14.5949 64.8079 14.5176 64.8121 14.4409H38.9383C38.9427 14.5176 38.9449 14.5949 38.9449 14.6727C38.9449 16.9224 37.1213 18.746 34.8716 18.746V28.744C37.1213 28.744 38.9449 30.5676 38.9449 32.8173H64.8058C64.8056 30.5676 66.6293 28.744 68.8789 28.744Z" fill="#D4F0E3"/>
<path d="M63.0827 47.6967L54.8724 52.8098C53.4645 48.5089 49.4606 45.4835 44.8463 45.422L36.4995 45.2522C31.7753 42.4795 25.7057 43.5585 22.2154 47.8528C21.3161 48.9592 20.5781 50.0042 20.0131 50.9707H17.8718V49.8384C17.8718 49.0078 17.1984 48.3345 16.3679 48.3345H1.50391C0.673449 48.3345 0 49.0078 0 49.8384V67.6027C0 68.4333 0.673449 69.1066 1.50391 69.1066H16.3679C17.1984 69.1066 17.8718 68.4333 17.8718 67.6027V65.6778L38.5188 70.211C39.921 70.5253 41.3457 70.6799 42.7636 70.6798C46.3415 70.6796 49.8722 69.695 52.8617 67.8087C52.9777 67.7354 65.6933 59.1154 76.3399 51.8969C76.7003 51.6525 76.9371 51.2642 76.989 50.832C77.0412 50.3998 76.9035 49.9663 76.6114 49.6435C73.1616 45.8288 67.4758 45.0077 63.0827 47.6967ZM14.864 66.0989H3.00781V51.3424H14.864V66.0989ZM51.2424 65.274C47.7379 67.4799 43.3411 68.2098 39.1701 67.2748L17.8718 62.5986V53.9788H20.9052C21.4732 53.9788 21.9928 53.6587 22.2485 53.1513C22.7494 52.1566 23.5237 51.0123 24.5495 49.7501C27.1667 46.5299 31.7675 45.7837 35.2507 48.0143C35.4841 48.1638 35.7542 48.2457 36.031 48.2514L44.7958 48.4297C48.1032 48.4736 50.9707 50.6285 51.9982 53.6984H33.8083C32.9778 53.6984 32.3044 54.3717 32.3044 55.2023C32.3044 56.033 32.9778 56.7063 33.8083 56.7063H53.8759C54.157 56.7063 54.4324 56.6276 54.6709 56.4789L64.6627 50.2562C67.2998 48.642 70.5931 48.793 73.0507 50.4933C64.8961 56.0221 51.7586 64.928 51.2424 65.274Z" fill="#29B475"/>
<path d="M10.2568 58.9888C9.42638 58.9888 8.75293 59.6621 8.75293 60.4927V61.5976C8.75293 62.4282 9.42638 63.1015 10.2568 63.1015C11.0873 63.1015 11.7607 62.4282 11.7607 61.5976V60.4927C11.7607 59.6621 11.0874 58.9888 10.2568 58.9888Z" fill="#29B475"/>
<path d="M72.896 6.31982H30.8537C28.5909 6.31982 26.75 8.16076 26.75 10.4235V36.8347C26.75 39.0975 28.5909 40.9384 30.8537 40.9384H72.896C75.1588 40.9384 76.9997 39.0975 76.9997 36.8347V10.4235C76.9997 8.16076 75.1588 6.31982 72.896 6.31982ZM73.9919 36.8347C73.9919 37.439 73.5003 37.9306 72.896 37.9306H30.8537C30.2493 37.9306 29.7578 37.439 29.7578 36.8347V10.4235C29.7578 9.81926 30.2494 9.32764 30.8537 9.32764H72.896C73.5004 9.32764 73.9919 9.81926 73.9919 10.4235V36.8347Z" fill="#29B475"/>
<path d="M51.8747 18.8994C49.2669 18.8994 47.1455 21.021 47.1455 23.6288C47.1455 26.2365 49.2669 28.3581 51.8747 28.3581C54.4825 28.3581 56.604 26.2365 56.604 23.6288C56.604 21.021 54.4823 18.8994 51.8747 18.8994ZM51.8747 25.3503C50.9254 25.3503 50.1533 24.578 50.1533 23.6288C50.1533 22.6795 50.9256 21.9072 51.8747 21.9072C52.8241 21.9072 53.5962 22.6795 53.5962 23.6288C53.5962 24.578 52.824 25.3503 51.8747 25.3503Z" fill="#29B475"/>
</g>
<defs>
<clipPath id="clip0_1838_11695">
<rect width="77" height="77" fill="white"/>
</clipPath>
</defs>
</svg>
