<svg width="77" height="77" viewBox="0 0 77 77" fill="none" xmlns="http://www.w3.org/2000/svg">
<g clip-path="url(#clip0_1838_11652)">
<path d="M54.064 66.9732C62.2461 66.9732 68.879 60.3403 68.879 52.1582C68.879 43.9762 62.2461 37.3433 54.064 37.3433C45.8819 37.3433 39.249 43.9762 39.249 52.1582C39.249 60.3403 45.8819 66.9732 54.064 66.9732Z" fill="#D4F0E3"/>
<path d="M16.616 22.0845H9.39209C8.56148 22.0845 7.88818 22.7578 7.88818 23.5884C7.88818 24.419 8.56148 25.0923 9.39209 25.0923H16.616C17.4466 25.0923 18.1199 24.419 18.1199 23.5884C18.1199 22.7578 17.4466 22.0845 16.616 22.0845Z" fill="#29B475"/>
<path d="M30.8425 22.0845H23.6187C22.788 22.0845 22.1147 22.7578 22.1147 23.5884C22.1147 24.419 22.788 25.0923 23.6187 25.0923H30.8425C31.6731 25.0923 32.3464 24.419 32.3464 23.5884C32.3464 22.7578 31.6731 22.0845 30.8425 22.0845Z" fill="#29B475"/>
<path d="M37.8447 25.0923H45.0686C45.8991 25.0923 46.5725 24.419 46.5725 23.5884C46.5725 22.7578 45.8991 22.0845 45.0686 22.0845H37.8447C37.0141 22.0845 36.3408 22.7578 36.3408 23.5884C36.3408 24.419 37.0141 25.0923 37.8447 25.0923Z" fill="#29B475"/>
<path d="M16.616 29.5176H9.39209C8.56148 29.5176 7.88818 30.1909 7.88818 31.0215C7.88818 31.8521 8.56148 32.5254 9.39209 32.5254H16.616C17.4466 32.5254 18.1199 31.8521 18.1199 31.0215C18.1199 30.1909 17.4466 29.5176 16.616 29.5176Z" fill="#29B475"/>
<path d="M30.8425 29.5176H23.6187C22.788 29.5176 22.1147 30.1909 22.1147 31.0215C22.1147 31.8521 22.788 32.5254 23.6187 32.5254H30.8425C31.6731 32.5254 32.3464 31.8521 32.3464 31.0215C32.3464 30.1909 31.6731 29.5176 30.8425 29.5176Z" fill="#29B475"/>
<path d="M16.616 36.9512H9.39209C8.56148 36.9512 7.88818 37.6245 7.88818 38.4551C7.88818 39.2857 8.56148 39.959 9.39209 39.959H16.616C17.4466 39.959 18.1199 39.2857 18.1199 38.4551C18.1199 37.6245 17.4466 36.9512 16.616 36.9512Z" fill="#29B475"/>
<path d="M30.8425 36.9512H23.6187C22.788 36.9512 22.1147 37.6245 22.1147 38.4551C22.1147 39.2857 22.788 39.959 23.6187 39.959H30.8425C31.6731 39.959 32.3464 39.2857 32.3464 38.4551C32.3464 37.6245 31.6731 36.9512 30.8425 36.9512Z" fill="#29B475"/>
<path d="M54.4607 29.2255V9.36356C54.4607 6.25754 51.9336 3.73053 48.8276 3.73053H47.2884V3.41064C47.2884 2.58004 46.6149 1.90674 45.7845 1.90674C44.954 1.90674 44.2806 2.58004 44.2806 3.41064V3.73053H38.0112V3.41064C38.0112 2.58004 37.3379 1.90674 36.5073 1.90674C35.6767 1.90674 35.0034 2.58004 35.0034 3.41064V3.73053H28.7342V3.41064C28.7342 2.58004 28.0609 1.90674 27.2303 1.90674C26.3997 1.90674 25.7264 2.58004 25.7264 3.41064V3.73053H19.4571V3.41064C19.4571 2.58004 18.7838 1.90674 17.9532 1.90674C17.1226 1.90674 16.4493 2.58004 16.4493 3.41064V3.73053H10.1801V3.41064C10.1801 2.58004 9.50679 1.90674 8.67619 1.90674C7.84558 1.90674 7.17228 2.58004 7.17228 3.41064V3.73053H5.63303C2.52701 3.73053 0 6.25739 0 9.36356V42.9844C0 46.0905 2.52701 48.6175 5.63303 48.6175H31.401C31.2214 49.7719 31.128 50.9544 31.128 52.1583C31.128 64.8052 41.4171 75.0943 54.0641 75.0943C66.711 75.0943 77 64.8051 77 52.1581C77 39.6437 66.9253 29.438 54.4607 29.2255ZM3.00781 9.36356C3.00781 7.91605 4.18552 6.73834 5.63303 6.73834H7.17228V8.72229C7.17228 9.5529 7.84558 10.2262 8.67619 10.2262C9.50679 10.2262 10.1801 9.5529 10.1801 8.72229V6.73834H16.4494V8.72229C16.4494 9.5529 17.1227 10.2262 17.9533 10.2262C18.7839 10.2262 19.4572 9.5529 19.4572 8.72229V6.73834H25.7266V8.72229C25.7266 9.5529 26.3999 10.2262 27.2305 10.2262C28.0611 10.2262 28.7344 9.5529 28.7344 8.72229V6.73834H35.0036V8.72229C35.0036 9.5529 35.6769 10.2262 36.5075 10.2262C37.3381 10.2262 38.0114 9.5529 38.0114 8.72229V6.73834H44.2807V8.72229C44.2807 9.5529 44.9542 10.2262 45.7846 10.2262C46.6151 10.2262 47.2885 9.5529 47.2885 8.72229V6.73834H48.8278C50.2753 6.73834 51.453 7.91605 51.453 9.36356V13.7139H3.00781V9.36356ZM5.63303 45.6095C4.18552 45.6095 3.00781 44.4318 3.00781 42.9843V16.7217H51.4528V29.3699C49.7318 29.5658 48.0679 29.9529 46.483 30.5095C46.2735 29.9311 45.7194 29.5177 45.0686 29.5177H37.8447C37.0141 29.5177 36.3408 30.191 36.3408 31.0216C36.3408 31.8522 37.0141 32.5255 37.8447 32.5255H42.216C37.3919 35.4478 33.7254 40.0969 32.0803 45.6095H5.63303ZM54.0639 72.0864C43.0755 72.0864 34.1357 63.1465 34.1357 52.1581C34.1357 41.1697 43.0753 32.2298 54.0639 32.2298C65.0525 32.2298 73.9922 41.1697 73.9922 52.1581C73.9922 63.1465 65.0525 72.0864 54.0639 72.0864Z" fill="#29B475"/>
<path d="M58.0071 50.6538H55.5679V44.0112C55.5679 43.1806 54.8944 42.5073 54.064 42.5073C53.2335 42.5073 52.5601 43.1806 52.5601 44.0112V52.1577C52.5601 52.9883 53.2335 53.6616 54.064 53.6616H58.0071C58.8375 53.6616 59.511 52.9883 59.511 52.1577C59.511 51.3271 58.8375 50.6538 58.0071 50.6538Z" fill="#29B475"/>
</g>
<defs>
<clipPath id="clip0_1838_11652">
<rect width="77" height="77" fill="white"/>
</clipPath>
</defs>
</svg>
